# xmcd
#
# Track frame offsets: 
#        150
#        23886
#        45257
#        70511
#        96221
#        120490
#        138242
#        159184
#        181821
#        199681
#        230889
#        238536
#        251713
#        259750
#        304760
#
# Disc length: 4506 seconds
#
# Revision: 1
# Processed by: cddbd v1.5.2PL0 Copyright (c) Steve Scherf et al.
# Submitted via: ExactAudioCopyFreeDBPlugin 1.0
#
DISCID=bd11980f
DTITLE=Miles Davis - The Very Best Of Miles Davis - The Warner Bros. S
DTITLE=essions 1985 - 1991
DYEAR=2007
DGENRE=Jazz
TTITLE0=Tutu
TTITLE1=Splatch
TTITLE2=Catembé
TTITLE3=Mr. Pastorius
TTITLE4=Amandla
TTITLE5=Mystery
TTITLE6=Chocolate Chip
TTITLE7=The Doo-Bop Song
TTITLE8=Trumpet Cleaning (with Michel Legrand)
TTITLE9=Siesta - Kitt's Kiss - Lost In Madrid Part II (with Marcus Mil
TTITLE9=ler)
TTITLE10=The Pan Piper (with Quincy Jones)
TTITLE11=Summertime (with Quincy Jones)
TTITLE12=In A Silent Way
TTITLE13=Time After Time
TTITLE14=Hannibal
EXTD=YEAR: 2007
EXTT0=
EXTT1=
EXTT2=
EXTT3=
EXTT4=
EXTT5=
EXTT6=
EXTT7=
EXTT8=
EXTT9=
EXTT10=
EXTT11=
EXTT12=
EXTT13=
EXTT14=
PLAYORDER=
